<?xml version="1.0" encoding="utf-8"?>
<svg xmlns="http://www.w3.org/2000/svg"
     xmlns:xlink="http://www.w3.org/1999/xlink"
     width="500"
     height="500"
     viewBox="0 0 500 500">

  <!-- full dark background, no white edge -->
  <rect x="0" y="0" width="500" height="500" fill="#1C212E" />

  <!-- QR code group, scaled/translated like your original -->
  <g transform="scale(0.85) translate(43.48 43.48)">
    <svg xmlns="http://www.w3.org/2000/svg"
         version="1.1"
         width="500"
         height="500"
         viewBox="0 0 500 500">
      <g transform="scale(17.241)">
        <g transform="translate(0,0)">
          <path d="M9 0L9 1L8 1L8 3L9 3L9 4L8 4L8 8L6 8L6 9L8 9L8 8L10 8L10 10L9 10L9 11L11 11L11 10L12 10L12 9L11 9L11 8L10 8L10 7L11 7L11 6L12 6L12 8L13 8L13 10L14 10L14 11L13 11L13 12L12 12L12 13L8 13L8 11L7 11L7 10L6 10L6 11L7 11L7 12L5 12L5 13L8 13L8 15L7 15L7 14L6 14L6 15L5 15L5 16L6 16L6 17L5 17L5 19L7 19L7 20L2 20L2 21L7 21L7 20L8 20L8 23L9 23L9 25L8 25L8 26L9 26L9 27L8 27L8 29L9 29L9 28L12 28L12 29L15 29L15 28L12 28L12 27L15 27L15 23L13 23L13 22L15 22L15 20L14 20L14 21L13 21L13 20L12 20L12 19L11 19L11 18L10 18L10 17L12 17L12 16L13 16L13 19L14 19L14 18L15 18L15 16L13 16L13 15L16 15L16 19L18 19L18 18L17 18L17 16L19 16L19 17L21 17L21 16L22 16L22 18L21 18L21 19L19 19L19 20L20 20L20 21L19 21L19 22L18 22L18 20L17 20L17 23L16 23L16 24L17 24L17 23L18 23L18 24L19 24L19 25L16 25L16 28L19 28L19 27L20 27L20 26L21 26L21 27L22 27L22 26L24 26L24 29L25 29L25 28L26 28L26 29L28 29L28 28L29 28L29 25L28 25L28 28L26 28L26 27L27 27L27 26L26 26L26 25L25 25L25 22L26 22L26 21L27 21L27 23L26 23L26 24L29 24L29 23L28 23L28 21L29 21L29 20L28 20L28 19L27 19L27 20L22 20L22 19L23 19L23 16L24 16L24 18L25 18L25 19L26 19L26 18L29 18L29 17L28 17L28 16L29 16L29 14L28 14L28 13L29 13L29 11L25 11L25 16L24 16L24 15L23 15L23 14L24 14L24 13L23 13L23 12L24 12L24 10L23 10L23 11L22 11L22 10L21 10L21 11L22 11L22 13L20 13L20 14L21 14L21 15L20 15L20 16L19 16L19 15L17 15L17 14L19 14L19 12L18 12L18 13L17 13L17 14L16 14L16 13L15 13L15 12L14 12L14 11L15 11L15 10L16 10L16 11L18 11L18 10L19 10L19 11L20 11L20 10L19 10L19 9L15 9L15 10L14 10L14 8L15 8L15 6L16 6L16 7L17 7L17 8L20 8L20 9L21 9L21 5L19 5L19 4L21 4L21 0L20 0L20 1L19 1L19 4L18 4L18 5L15 5L15 4L17 4L17 3L18 3L18 2L17 2L17 3L16 3L16 1L17 1L17 0L16 0L16 1L15 1L15 0L14 0L14 1L13 1L13 0L12 0L12 1L11 1L11 2L9 2L9 1L10 1L10 0ZM13 2L13 3L12 3L12 4L9 4L9 5L10 5L10 6L9 6L9 7L10 7L10 6L11 6L11 5L12 5L12 6L13 6L13 8L14 8L14 6L15 6L15 5L13 5L13 3L14 3L14 4L15 4L15 3L14 3L14 2ZM18 5L18 6L17 6L17 7L18 7L18 6L19 6L19 7L20 7L20 6L19 6L19 5ZM0 8L0 12L1 12L1 11L2 11L2 10L3 10L3 11L4 11L4 10L5 10L5 9L4 9L4 8L3 8L3 9L2 9L2 8ZM22 8L22 9L25 9L25 10L26 10L26 9L28 9L28 10L29 10L29 9L28 9L28 8L26 8L26 9L25 9L25 8ZM1 9L1 10L2 10L2 9ZM3 9L3 10L4 10L4 9ZM3 12L3 15L4 15L4 12ZM13 13L13 14L14 14L14 13ZM26 13L26 14L27 14L27 15L26 15L26 16L25 16L25 18L26 18L26 16L27 16L27 15L28 15L28 14L27 14L27 13ZM1 14L1 16L0 16L0 17L1 17L1 18L0 18L0 19L1 19L1 18L2 18L2 19L4 19L4 16L2 16L2 14ZM9 14L9 15L8 15L8 16L7 16L7 15L6 15L6 16L7 16L7 17L6 17L6 18L7 18L7 17L8 17L8 19L9 19L9 21L10 21L10 19L9 19L9 15L10 15L10 16L12 16L12 14ZM1 16L1 17L2 17L2 18L3 18L3 17L2 17L2 16ZM0 20L0 21L1 21L1 20ZM27 20L27 21L28 21L28 20ZM21 21L21 24L24 24L24 21ZM10 22L10 25L9 25L9 26L10 26L10 27L11 27L11 22ZM19 22L19 23L20 23L20 22ZM22 22L22 23L23 23L23 22ZM13 24L13 25L12 25L12 26L14 26L14 24ZM21 25L21 26L22 26L22 25ZM24 25L24 26L25 26L25 25ZM17 26L17 27L18 27L18 26ZM20 28L20 29L21 29L21 28ZM22 28L22 29L23 29L23 28ZM0 0L7 0L7 7L0 7ZM1 1L1 6L6 6L6 1ZM2 2L5 2L5 5L2 5ZM22 0L29 0L29 7L22 7ZM23 1L23 6L28 6L28 1ZM24 2L27 2L27 5L24 5ZM0 22L7 22L7 29L0 29ZM1 23L1 28L6 28L6 23ZM2 24L5 24L5 27L2 27Z"
                style="fill-rule: evenodd; fill: #ffffff" />
        </g>
      </g>
    </svg>
  </g>
</svg>