<?xml version="1.0" encoding="utf-8"?>
<svg xmlns="http://www.w3.org/2000/svg"
     xmlns:xlink="http://www.w3.org/1999/xlink"
     width="500"
     height="500"
     viewBox="0 0 500 500">

  <!-- full dark background, no white edge -->
  <rect x="0" y="0" width="500" height="500" fill="#1C212E" />

  <!-- QR code for https://ko-fi.com/nautxx -->
  <g transform="scale(0.85) translate(43.48 43.48)">
    <path d="M0 0h140v20h-140zM160 0h20v20h-20zM260 0h20v20h-20zM360 0h140v20h-140zM0 20h20v20h-20zM120 20h20v20h-20zM160 20h20v20h-20zM220 20h60v20h-60zM320 20h20v20h-20zM360 20h20v20h-20zM480 20h20v20h-20zM0 40h20v20h-20zM40 40h60v20h-60zM120 40h20v20h-20zM180 40h20v20h-20zM260 40h40v20h-40zM360 40h20v20h-20zM400 40h60v20h-60zM480 40h20v20h-20zM0 60h20v20h-20zM40 60h60v20h-60zM120 60h20v20h-20zM160 60h60v20h-60zM260 60h40v20h-40zM360 60h20v20h-20zM400 60h60v20h-60zM480 60h20v20h-20zM0 80h20v20h-20zM40 80h60v20h-60zM120 80h20v20h-20zM180 80h40v20h-40zM260 80h80v20h-80zM360 80h20v20h-20zM400 80h60v20h-60zM480 80h20v20h-20zM0 100h20v20h-20zM120 100h20v20h-20zM200 100h20v20h-20zM280 100h20v20h-20zM360 100h20v20h-20zM480 100h20v20h-20zM0 120h140v20h-140zM160 120h20v20h-20zM200 120h20v20h-20zM240 120h20v20h-20zM280 120h20v20h-20zM320 120h20v20h-20zM360 120h140v20h-140zM160 140h80v20h-80zM280 140h60v20h-60zM0 160h20v20h-20zM40 160h40v20h-40zM100 160h60v20h-60zM180 160h40v20h-40zM240 160h20v20h-20zM280 160h60v20h-60zM360 160h20v20h-20zM420 160h20v20h-20zM460 160h40v20h-40zM0 180h60v20h-60zM80 180h20v20h-20zM140 180h20v20h-20zM200 180h20v20h-20zM240 180h20v20h-20zM320 180h20v20h-20zM380 180h20v20h-20zM460 180h20v20h-20zM0 200h20v20h-20zM80 200h60v20h-60zM180 200h20v20h-20zM220 200h20v20h-20zM280 200h20v20h-20zM320 200h20v20h-20zM360 200h40v20h-40zM0 220h60v20h-60zM140 220h20v20h-20zM200 220h20v20h-20zM260 220h200v20h-200zM0 240h100v20h-100zM120 240h20v20h-20zM160 240h160v20h-160zM360 240h20v20h-20zM400 240h20v20h-20zM440 240h60v20h-60zM100 260h20v20h-20zM160 260h20v20h-20zM220 260h40v20h-40zM300 260h120v20h-120zM480 260h20v20h-20zM20 280h40v20h-40zM80 280h60v20h-60zM200 280h40v20h-40zM260 280h40v20h-40zM320 280h60v20h-60zM400 280h20v20h-20zM440 280h40v20h-40zM0 300h20v20h-20zM60 300h40v20h-40zM180 300h20v20h-20zM220 300h20v20h-20zM280 300h20v20h-20zM320 300h100v20h-100zM480 300h20v20h-20zM40 320h20v20h-20zM80 320h140v20h-140zM260 320h20v20h-20zM300 320h200v20h-200zM160 340h20v20h-20zM200 340h20v20h-20zM260 340h40v20h-40zM320 340h20v20h-20zM400 340h20v20h-20zM440 340h20v20h-20zM480 340h20v20h-20zM0 360h140v20h-140zM160 360h60v20h-60zM240 360h20v20h-20zM280 360h20v20h-20zM320 360h20v20h-20zM360 360h20v20h-20zM400 360h20v20h-20zM440 360h60v20h-60zM0 380h20v20h-20zM120 380h20v20h-20zM160 380h80v20h-80zM280 380h20v20h-20zM320 380h20v20h-20zM400 380h20v20h-20zM460 380h20v20h-20zM0 400h20v20h-20zM40 400h60v20h-60zM120 400h20v20h-20zM280 400h20v20h-20zM320 400h120v20h-120zM480 400h20v20h-20zM0 420h20v20h-20zM40 420h60v20h-60zM120 420h20v20h-20zM160 420h40v20h-40zM240 420h60v20h-60zM340 420h40v20h-40zM400 420h100v20h-100zM0 440h20v20h-20zM40 440h60v20h-60zM120 440h20v20h-20zM160 440h40v20h-40zM220 440h20v20h-20zM280 440h20v20h-20zM320 440h60v20h-60zM400 440h20v20h-20zM440 440h40v20h-40zM0 460h20v20h-20zM120 460h20v20h-20zM200 460h20v20h-20zM260 460h20v20h-20zM340 460h20v20h-20zM400 460h20v20h-20zM440 460h20v20h-20zM0 480h140v20h-140zM160 480h40v20h-40zM220 480h20v20h-20zM260 480h40v20h-40zM380 480h120v20h-120z"
          style="fill-rule: evenodd; fill: #ffffff" />
  </g>
</svg>
