<?xml version="1.0" encoding="utf-8"?>
<svg
    xmlns="http://www.w3.org/2000/svg"
    xmlns:xlink="http://www.w3.org/1999/xlink"
    width="500"
    height="500"
    viewBox="0 0 500 500">

    <!-- full-bleed dark background, no white border -->
    <rect x="0" y="0" width="500" height="500" fill="#1C212E" fill-opacity="1" />

    <!-- QR code group -->
    <g transform="scale(0.85) translate(43.48 43.48)">
        <svg
            xmlns="http://www.w3.org/2000/svg"
            version="1.1"
            width="500"
            height="500"
            viewBox="0 0 500 500">
            <g transform="scale(17.241)">
                <g transform="translate(0,0)">
                    <path d="M9 0L9 1L10 1L10 2L8 2L8 3L9 3L9 4L10 4L10 5L9 5L9 6L8 6L8 8L4 8L4 10L3 10L3 8L0 8L0 9L1 9L1 10L2 10L2 12L3 12L3 11L5 11L5 12L6 12L6 13L4 13L4 14L3 14L3 13L2 13L2 15L1 15L1 14L0 14L0 17L1 17L1 16L2 16L2 18L3 18L3 19L1 19L1 18L0 18L0 19L1 19L1 20L0 20L0 21L1 21L1 20L2 20L2 21L4 21L4 20L5 20L5 19L4 19L4 17L5 17L5 18L6 18L6 19L7 19L7 20L6 20L6 21L8 21L8 25L9 25L9 26L8 26L8 29L9 29L9 28L10 28L10 29L11 29L11 27L12 27L12 26L10 26L10 25L11 25L11 23L12 23L12 22L9 22L9 21L8 21L8 20L10 20L10 19L11 19L11 20L12 20L12 19L13 19L13 20L14 20L14 19L13 19L13 18L15 18L15 19L16 19L16 20L17 20L17 19L18 19L18 18L20 18L20 21L19 21L19 20L18 20L18 21L16 21L16 22L15 22L15 23L14 23L14 25L13 25L13 27L14 27L14 28L12 28L12 29L15 29L15 23L16 23L16 24L17 24L17 23L18 23L18 22L19 22L19 23L20 23L20 24L19 24L19 26L18 26L18 25L17 25L17 26L16 26L16 29L18 29L18 28L17 28L17 27L19 27L19 28L20 28L20 29L22 29L22 28L21 28L21 27L25 27L25 28L23 28L23 29L25 29L25 28L27 28L27 29L29 29L29 26L28 26L28 28L27 28L27 27L26 27L26 24L25 24L25 21L26 21L26 19L27 19L27 20L28 20L28 21L27 21L27 22L26 22L26 23L27 23L27 24L29 24L29 22L28 22L28 21L29 21L29 19L28 19L28 17L29 17L29 16L28 16L28 14L26 14L26 16L25 16L25 17L24 17L24 14L25 14L25 13L23 13L23 10L25 10L25 11L27 11L27 12L26 12L26 13L29 13L29 12L28 12L28 11L29 11L29 10L28 10L28 11L27 11L27 10L25 10L25 9L23 9L23 8L21 8L21 6L20 6L20 5L19 5L19 4L21 4L21 3L20 3L20 1L21 1L21 0L20 0L20 1L17 1L17 0L14 0L14 1L15 1L15 2L16 2L16 1L17 1L17 2L18 2L18 3L15 3L15 4L14 4L14 5L15 5L15 6L14 6L14 8L13 8L13 6L12 6L12 8L11 8L11 6L10 6L10 5L11 5L11 4L12 4L12 3L14 3L14 2L13 2L13 0L12 0L12 1L10 1L10 0ZM11 2L11 3L12 3L12 2ZM18 3L18 4L15 4L15 5L17 5L17 7L18 7L18 9L20 9L20 10L21 10L21 9L20 9L20 6L19 6L19 7L18 7L18 4L19 4L19 3ZM9 6L9 7L10 7L10 6ZM15 6L15 7L16 7L16 6ZM9 8L9 9L8 9L8 10L7 10L7 9L5 9L5 10L7 10L7 11L6 11L6 12L7 12L7 13L6 13L6 14L4 14L4 15L2 15L2 16L5 16L5 17L6 17L6 18L8 18L8 16L10 16L10 18L11 18L11 19L12 19L12 18L13 18L13 17L12 17L12 18L11 18L11 16L12 16L12 15L11 15L11 16L10 16L10 14L11 14L11 13L12 13L12 12L13 12L13 11L14 11L14 12L15 12L15 13L14 13L14 14L13 14L13 16L14 16L14 17L18 17L18 16L19 16L19 17L20 17L20 18L21 18L21 17L22 17L22 16L20 16L20 14L21 14L21 13L22 13L22 11L21 11L21 12L20 12L20 11L19 11L19 10L18 10L18 11L17 11L17 8L15 8L15 10L13 10L13 8L12 8L12 10L10 10L10 8ZM26 8L26 9L27 9L27 8ZM9 10L9 11L8 11L8 13L9 13L9 14L10 14L10 13L9 13L9 11L10 11L10 10ZM0 11L0 12L1 12L1 11ZM11 11L11 12L12 12L12 11ZM15 11L15 12L17 12L17 11ZM17 13L17 16L18 16L18 14L19 14L19 13ZM6 14L6 15L5 15L5 16L6 16L6 17L7 17L7 16L6 16L6 15L7 15L7 14ZM15 14L15 15L16 15L16 14ZM23 17L23 20L25 20L25 19L24 19L24 17ZM25 17L25 18L27 18L27 17ZM3 19L3 20L4 20L4 19ZM13 21L13 22L14 22L14 21ZM21 21L21 24L24 24L24 21ZM22 22L22 23L23 23L23 22ZM9 23L9 25L10 25L10 23ZM22 25L22 26L23 26L23 25ZM24 25L24 26L25 26L25 25ZM9 26L9 27L10 27L10 26ZM0 0L7 0L7 7L0 7ZM1 1L1 6L6 6L6 1ZM2 2L5 2L5 5L2 5ZM22 0L29 0L29 7L22 7ZM23 1L23 6L28 6L28 1ZM24 2L27 2L27 5L24 5ZM0 22L7 22L7 29L0 29ZM1 23L1 28L6 28L6 23ZM2 24L5 24L5 27L2 27Z"
                          style="fill-rule: evenodd; fill: #ffffff" />
                </g>
            </g>
        </svg>
    </g>
</svg>